PathFileType	4	(X/Y/Z)	E:\Qualisys_Data\Carbon_Farble_Plate\Data\Amateur_Runner\S14\T1\S14T1V12_c3d.trc
DataRate	CameraRate	NumFrames	NumMarkers	Units	OrigDataRate	OrigDataStartFrame	OrigNumFrames
200.000000	200.000000	5	39	mm	200.000000	126	338
Frame#	Time	LSHO			RSHO			LICST			RICST			LASIS			LHEEL			RASIS			LTROC			RTROC			SACR			LTH1			LSK4			LTH2			LTH3			RHM5			LSK2			LTH4			RTH1			LTOE			RTH2			RTH3			RTH4			LLEP			RLEP			LSK1			LSK3			RSK1			LHM5			RSK2			LFT1			RSK3			RSK4			LLME			RLME			RTOE			RHEEL			RFT1			RFT2			LFT2			
		X1	Y1	Z1	X2	Y2	Z2	X3	Y3	Z3	X4	Y4	Z4	X5	Y5	Z5	X6	Y6	Z6	X7	Y7	Z7	X8	Y8	Z8	X9	Y9	Z9	X10	Y10	Z10	X11	Y11	Z11	X12	Y12	Z12	X13	Y13	Z13	X14	Y14	Z14	X15	Y15	Z15	X16	Y16	Z16	X17	Y17	Z17	X18	Y18	Z18	X19	Y19	Z19	X20	Y20	Z20	X21	Y21	Z21	X22	Y22	Z22	X23	Y23	Z23	X24	Y24	Z24	X25	Y25	Z25	X26	Y26	Z26	X27	Y27	Z27	X28	Y28	Z28	X29	Y29	Z29	X30	Y30	Z30	X31	Y31	Z31	X32	Y32	Z32	X33	Y33	Z33	X34	Y34	Z34	X35	Y35	Z35	X36	Y36	Z36	X37	Y37	Z37	X38	Y38	Z38	X39	Y39	Z39	

127	0.63	-378.0496826171875	1381.67138671875	-507.2579956054688	-386.4126892089844	1400.604736328125	-200.2763519287109	-447.9738159179688	949.4869384765624	-463.3591003417969	-409.2828063964844	947.4534301757812	-185.1656188964844	-403.5384216308594	900.2921752929688	-440.2154846191406	-787.4669189453125	118.6050033569336	-310.6225280761719	-387.4481506347656	903.1142578125	-205.4614562988281	-553.637451171875	833.5286254882812	-460.5508117675781	-526.0834350585938	854.4754028320312	-151.0830688476562	-564.6552124023438	963.704833984375	-318.2027893066406	-469.016357421875	604.1731567382812	-460.0750122070312	-646.586669921875	291.3165283203125	-399.6433715820312	-544.2367553710938	606.5379638671875	-441.7719116210938	-461.2832641601562	508.4216613769531	-429.4286499023438	-636.4249877929688	192.9691009521484	-160.0036315917969	-591.4254760742188	370.5681762695312	-421.9644165039062	-539.7904663085938	511.7591247558594	-415.9640502929688	-311.3668212890625	665.4343872070312	-142.5234069824219	-539.546630859375	62.75687408447266	-345.473876953125	-384.7388000488281	636.7954711914062	-132.2771453857422	-271.3736572265625	574.9085083007812	-163.1175689697266	-347.4917602539062	541.6614379882812	-144.9162139892578	-492.6814880371094	439.2105102539062	-416.8234558105469	-312.1315002441406	490.8363647460938	-151.0049896240234	-522.0478515625	326.9685668945312	-409.2999267578125	-581.7262573242188	245.8926544189453	-389.4088745117188	-379.1257934570312	406.4447631835938	-155.9930877685547	-609.437255859375	61.24736022949219	-404.7538757324219	-420.8647766113281	480.6670227050781	-153.5749816894531	-779.1167602539062	91.12436676025392	-284.5313415527344	-473.0054931640625	364.0474853515625	-173.116943359375	-504.5294189453125	436.3587341308594	-169.6860809326172	-718.94287109375	131.7893371582031	-372.0989379882812	-641.456298828125	334.1990356445312	-195.9145355224609	-596.91357421875	129.0965728759766	-219.2259368896484	-691.1500244140625	368.7596740722656	-251.0584869384766	-710.9728393554688	342.4788818359375	-280.2838745117188	-710.59765625	359.3648071289062	-223.0436401367188	-790.9252319335938	92.48052978515624	-338.8075256347656
128	0.635	-360.14697265625	1386.195678710938	-506.3524475097656	-372.4323425292969	1404.435180664062	-200.0078582763672	-430.3835144042969	952.48583984375	-463.6766357421875	-390.2372436523438	950.8637084960938	-186.439453125	-386.1441955566406	902.9716186523438	-440.5113220214844	-785.1646728515625	124.4330825805664	-311.8023681640625	-369.5697021484375	907.1608276367188	-206.7151641845703	-537.373291015625	836.8275756835938	-461.2515563964844	-509.9279479980469	859.0289916992188	-151.0156707763672	-547.739990234375	967.21044921875	-319.0805969238281	-459.6533813476562	606.5516357421875	-459.6061401367188	-644.0224609375	295.6773681640625	-399.9382934570312	-534.9408569335938	611.3036499023438	-441.8468322753906	-454.7807006835938	510.8735046386719	-429.1307983398438	-604.1902465820312	188.8318481445312	-159.7474975585938	-587.8084106445312	374.941162109375	-422.0376281738281	-533.2854614257812	516.6156005859375	-416.3381042480469	-292.9974060058594	671.634033203125	-142.5856323242188	-539.4594116210938	63.22097015380859	-345.2829284667969	-365.9359741210938	641.8961181640625	-132.4240417480469	-251.5187377929688	581.8389282226562	-163.3621520996094	-327.2743530273438	547.3343505859375	-145.4936218261719	-488.0600891113281	442.7294921875	-416.9004821777344	-291.021728515625	497.1736450195312	-151.7980041503906	-519.4381713867188	330.5509338378906	-409.5314331054688	-579.4077758789062	249.9313201904297	-389.9967041015625	-355.6973571777344	409.4973754882812	-156.92333984375	-608.7085571289062	61.79607009887695	-404.741943359375	-399.61328125	483.3432006835938	-154.3306579589844	-777.658203125	96.8366470336914	-285.2578125	-447.9276428222656	364.6089477539062	-174.1603088378906	-481.9140930175781	436.0783081054688	-170.2949371337891	-716.4746704101562	136.20068359375	-373.1958312988281	-615.78515625	328.469482421875	-196.9507904052734	-562.2313842773438	126.2832260131836	-218.0847778320312	-666.2328491210938	361.5687561035156	-251.4295806884766	-685.5178833007812	334.0125732421875	-280.7314147949219	-685.4573974609375	351.2683715820312	-223.8019409179688	-789.0254516601562	97.77669525146484	-339.8878784179688
129	0.64	-342.1819763183594	1390.86181640625	-505.2271423339844	-358.4019470214844	1408.5322265625	-199.4848175048828	-412.61474609375	955.697998046875	-463.8644104003906	-374.18505859375	955.0801391601562	-186.0590362548828	-368.8116455078125	905.8115844726562	-440.2648620605469	-782.2778930664062	130.5399322509766	-313.3803100585938	-354.0014343261719	911.1336059570312	-206.8271789550781	-520.6603393554688	839.7986450195312	-462.0127563476562	-493.1388854980469	863.9263916015625	-150.8056335449219	-530.4559326171875	970.5194702148438	-320.2246398925781	-449.8391418457031	609.8056030273438	-459.678955078125	-640.3408203125	300.6040344238281	-400.6104736328125	-525.0093994140625	616.464111328125	-441.7943115234375	-448.0205688476562	513.9229125976562	-428.9638061523438	-571.5128173828125	184.5460968017578	-159.1327514648438	-583.7954711914062	379.8694763183594	-422.2335205078125	-525.7942504882812	521.5767211914062	-416.4442138671875	-274.4733581542969	677.8560180664062	-142.8025054931641	-538.0463256835938	63.68383026123047	-345.4565734863281	-347.4012451171875	647.1084594726562	-132.7309417724609	-231.6232452392578	588.7686767578125	-163.9370422363281	-306.9554443359375	552.9207763671875	-146.2667236328125	-483.1046752929688	446.3544311523438	-416.8336791992188	-269.9424438476562	503.0772399902344	-152.6248016357422	-515.1239013671875	334.8988342285156	-409.9732666015625	-576.3468627929688	254.5015106201172	-390.8679504394531	-332.521728515625	413.1796875	-157.3468170166016	-608.2086181640625	62.12401580810547	-404.8355407714844	-378.8059997558594	485.6788940429688	-155.2216949462891	-775.7252807617188	103.6118621826172	-286.6178894042969	-423.2617797851562	364.3370361328125	-175.0348663330078	-459.5403137207031	435.4698486328125	-170.8204040527344	-713.72412109375	140.0565032958984	-373.4778442382812	-589.78564453125	322.8497314453125	-197.4271545410156	-526.7625732421875	124.0041046142578	-217.3554992675781	-641.7633056640625	354.0506286621094	-252.3590545654297	-660.1048583984375	325.4997253417969	-281.6046447753906	-660.9723510742188	343.1305236816406	-224.6719970703125	-786.8561401367188	104.1481094360352	-341.7583923339844
130	0.645	-324.1416931152344	1395.43359375	-503.9372253417969	-344.19873046875	1412.852172851562	-199.2242584228516	-394.6570434570312	958.5336303710938	-464.07373046875	-357.5079345703125	959.2232666015624	-186.520751953125	-351.3511047363281	908.826904296875	-440.3794555664062	-778.6345825195312	137.17138671875	-314.5475158691406	-336.640380859375	916.1356811523438	-206.7005615234375	-503.9771118164062	843.6674194335938	-463.0733642578125	-476.2132568359375	868.4461669921875	-150.6654510498047	-513.991943359375	974.1226196289062	-321.5188293457031	-439.4303283691406	613.32080078125	-459.6882629394531	-638.2830200195312	308.2476501464844	-402.0716552734375	-514.50439453125	622.04833984375	-442.1888427734375	-440.43408203125	517.389404296875	-429.1653747558594	-539.2197265625	180.0061645507812	-159.3015289306641	-579.0867309570312	385.5817260742188	-422.9129638671875	-518.3233032226562	526.79248046875	-416.1190490722656	-256.1222839355469	684.1048583984375	-143.2221984863281	-538.5493774414062	63.24090576171875	-345.3534851074219	-328.1626281738281	652.1747436523438	-133.037353515625	-212.1206817626953	595.2605590820312	-164.5627288818359	-286.8864440917969	558.8436889648438	-146.5398712158203	-477.349853515625	450.9015197753906	-417.3086547851562	-249.3433380126953	508.9974975585938	-153.2388916015625	-511.0115356445312	339.4390563964844	-410.4424743652344	-572.83154296875	259.5704650878906	-391.7959289550781	-309.456787109375	417.0526123046875	-157.5221252441406	-607.8101196289062	62.31144332885742	-405.0333251953125	-358.2481689453125	487.6260070800781	-156.3935394287109	-772.5670166015625	110.2352981567383	-287.5901184082031	-398.5122985839844	364.9880676269531	-174.6950988769531	-437.2333679199219	434.4250183105469	-171.7987365722656	-710.2236938476562	145.646240234375	-374.9287414550781	-563.8795776367188	317.0452880859375	-198.4483795166016	-491.6323852539062	121.2873840332031	-216.722412109375	-616.6299438476562	345.8056335449219	-252.6906585693359	-634.1517944335938	316.3887023925781	-282.1073303222656	-636.4214477539062	334.6557006835938	-225.4075469970703	-783.5271606445312	110.2408981323242	-342.0675354003906
131	0.65	-306.6691589355469	1400.143798828125	-503.0232543945312	-330.002197265625	1416.94677734375	-198.8249664306641	-376.6676330566406	961.9044799804688	-464.2267456054688	-342.5962829589844	963.519775390625	-186.0742797851562	-334.1949768066406	911.6122436523438	-439.4240112304688	-774.2332763671875	144.0394287109375	-316.3824768066406	-319.9142150878906	920.8370971679688	-206.7544403076172	-487.6096801757812	847.2744140625	-463.3995971679688	-459.4884948730469	873.5133666992188	-150.8287506103516	-496.2291564941406	977.7088012695312	-322.4935913085938	-428.7371520996094	617.0130615234375	-459.9166259765625	-633.4752807617188	313.8942565917969	-403.0817260742188	-503.74267578125	627.6487426757812	-441.8471374511719	-431.7555236816406	521.3522338867188	-429.0983581542969	-506.8050842285156	175.7933197021484	-158.8625946044922	-573.1669921875	390.9302673339844	-423.6701354980469	-509.7697143554688	533.0355834960938	-416.8926086425781	-237.8866882324219	689.9188842773438	-143.5098724365234	-538.2149658203125	62.73695755004883	-345.7466430664062	-309.5315551757812	657.2166748046875	-133.434326171875	-192.9616546630859	601.8106079101562	-164.9149780273438	-267.3096313476562	564.2560424804688	-147.4663696289062	-470.7283020019531	455.6859436035156	-417.7978515625	-228.8680877685547	514.9994506835938	-154.0050048828125	-505.8203125	344.7428283691406	-411.015869140625	-568.0978393554688	265.2710876464844	-393.3007507324219	-287.105224609375	420.4482727050781	-157.8412017822266	-605.75244140625	62.92534255981445	-405.505859375	-337.659423828125	489.529052734375	-157.0261840820312	-768.53955078125	117.193489074707	-288.8043823242188	-373.7045288085938	365.710205078125	-175.2492980957031	-415.2077941894531	433.2509765625	-172.4734344482422	-706.7924194335938	150.3958282470703	-375.1869201660156	-537.4786987304688	310.9943237304688	-198.7395172119141	-456.0364074707031	119.0801467895508	-216.3696594238281	-592.12353515625	337.1495361328125	-253.7554321289062	-607.1588134765625	306.9423828125	-282.6422729492188	-611.11572265625	324.8238525390625	-226.2192840576172	-779.7615966796875	117.3338623046875	-343.4483032226562
